<svg width="175.000000" height="43.407928" viewBox="0 0 175 43.4079" fill="none" xmlns="http://www.w3.org/2000/svg" xmlns:xlink="http://www.w3.org/1999/xlink">
	<desc>
			Created with Pixso.
	</desc>
	<defs/>
	<rect id="akar-icons:github-fill" rx="21.203962" width="43.000000" height="42.407925" transform="translate(131.500000 0.500000)" fill="#FFFFFF" fill-opacity="1.000000"/>
	<path id="Vector" d="M153 10C146.37 10 141 15.37 141 22C141 27.31 144.43 31.79 149.2 33.38C149.8 33.49 150.03 33.13 150.03 32.81C150.03 32.53 150.01 31.58 150.01 30.58C147 31.13 146.22 29.84 145.98 29.17C145.84 28.82 145.25 27.76 144.75 27.47C144.33 27.25 143.73 26.69 144.73 26.68C145.67 26.66 146.35 27.55 146.58 27.91C147.66 29.72 149.38 29.21 150.07 28.9C150.17 28.12 150.49 27.59 150.84 27.29C148.17 26.99 145.38 25.96 145.38 21.37C145.38 20.06 145.84 18.98 146.61 18.14C146.49 17.84 146.07 16.61 146.73 14.96C146.73 14.96 147.73 14.65 150.03 16.19C150.99 15.92 152 15.79 153.03 15.79C154.05 15.79 155.07 15.92 156.03 16.19C158.32 14.63 159.33 14.96 159.33 14.96C159.99 16.61 159.57 17.84 159.45 18.14C160.21 18.98 160.67 20.04 160.67 21.37C160.67 25.97 157.87 26.99 155.2 27.29C155.64 27.67 156.01 28.39 156.01 29.51C156.01 31.12 156 32.41 156 32.81C156 33.13 156.22 33.5 156.82 33.38C159.2 32.58 161.27 31.04 162.74 29C164.21 26.96 164.99 24.51 165 22C165 15.37 159.63 10 153 10Z" fill="#3A3A3A" fill-opacity="1.000000" fill-rule="evenodd"/>
	<rect id="bx:bxl-facebook" rx="20.000000" width="40.000000" height="41.000000" transform="translate(66.500000 1.500000)" fill="#FFFFFF" fill-opacity="1.000000"/>
	<path id="Vector" d="M87.89 30.99L87.89 22.8L90.66 22.8L91.07 19.59L87.89 19.59L87.89 17.54C87.89 16.62 88.15 15.98 89.48 15.98L91.16 15.98L91.16 13.12C90.34 13.04 89.52 12.99 88.7 13C86.25 13 84.57 14.49 84.57 17.23L84.57 19.58L81.83 19.58L81.83 22.79L84.58 22.79L84.58 30.99L87.89 30.99Z" fill="#3A3A3A" fill-opacity="1.000000" fill-rule="nonzero"/>
	<rect id="akar-icons:instagram-fill" rx="20.500000" width="41.000000" height="41.000000" transform="translate(0.500000 1.500000)" fill="#FFFFFF" fill-opacity="1.000000"/>
	<path id="Vector" d="M16.46 11.06C17.63 11.01 18.01 11 21 11C23.98 11 24.36 11.01 25.53 11.06C26.7 11.11 27.5 11.3 28.2 11.57C28.93 11.85 29.6 12.28 30.15 12.84C30.71 13.39 31.14 14.06 31.42 14.79C31.69 15.49 31.88 16.29 31.93 17.46C31.98 18.63 32 19.01 32 22C32 24.98 31.98 25.36 31.93 26.53C31.88 27.7 31.69 28.5 31.42 29.2C31.14 29.93 30.71 30.6 30.15 31.15C29.6 31.71 28.93 32.14 28.2 32.42C27.5 32.69 26.7 32.88 25.53 32.93C24.36 32.98 23.98 33 21 33C18.01 33 17.63 32.98 16.46 32.93C15.29 32.88 14.49 32.69 13.79 32.42C13.06 32.14 12.39 31.71 11.84 31.15C11.28 30.6 10.85 29.93 10.57 29.2C10.3 28.5 10.12 27.7 10.06 26.53C10.01 25.36 10 24.98 10 22C10 19.01 10.01 18.63 10.06 17.46C10.11 16.29 10.3 15.49 10.57 14.79C10.85 14.06 11.28 13.39 11.84 12.84C12.39 12.28 13.06 11.85 13.79 11.57C14.49 11.3 15.29 11.12 16.46 11.06L16.46 11.06ZM25.44 13.04C24.28 12.99 23.93 12.98 21 12.98C18.06 12.98 17.71 12.99 16.55 13.04C15.48 13.09 14.9 13.27 14.51 13.42C13.99 13.62 13.63 13.86 13.24 14.24C12.88 14.6 12.6 15.03 12.42 15.51C12.27 15.9 12.09 16.48 12.04 17.55C11.99 18.71 11.98 19.06 11.98 22C11.98 24.93 11.99 25.28 12.04 26.44C12.09 27.51 12.27 28.1 12.42 28.48C12.6 28.96 12.88 29.39 13.24 29.75C13.6 30.11 14.03 30.39 14.51 30.57C14.9 30.72 15.48 30.9 16.55 30.95C17.71 31 18.06 31.01 21 31.01C23.93 31.01 24.28 31 25.44 30.95C26.51 30.9 27.1 30.72 27.48 30.57C28 30.37 28.36 30.13 28.75 29.75C29.11 29.39 29.39 28.96 29.57 28.48C29.72 28.1 29.9 27.51 29.95 26.44C30 25.28 30.01 24.93 30.01 22C30.01 19.06 30 18.71 29.95 17.55C29.9 16.48 29.72 15.9 29.57 15.51C29.37 14.99 29.13 14.63 28.75 14.24C28.39 13.88 27.96 13.6 27.48 13.42C27.1 13.27 26.51 13.09 25.44 13.04ZM19.59 25.39C20.37 25.71 21.25 25.76 22.06 25.51C22.88 25.26 23.58 24.74 24.05 24.04C24.52 23.33 24.74 22.48 24.65 21.64C24.57 20.79 24.19 20 23.59 19.4C23.21 19.02 22.74 18.72 22.23 18.54C21.72 18.36 21.18 18.29 20.64 18.34C20.1 18.4 19.57 18.57 19.11 18.85C18.64 19.13 18.25 19.51 17.94 19.96C17.64 20.41 17.45 20.92 17.37 21.46C17.29 21.99 17.33 22.54 17.48 23.06C17.64 23.58 17.91 24.06 18.28 24.46C18.64 24.86 19.09 25.18 19.59 25.39ZM17 18C17.52 17.47 18.15 17.06 18.83 16.77C19.52 16.49 20.25 16.34 21 16.34C21.74 16.34 22.47 16.49 23.16 16.77C23.84 17.06 24.47 17.47 24.99 18C25.52 18.52 25.93 19.15 26.22 19.83C26.5 20.52 26.65 21.25 26.65 22C26.65 22.74 26.5 23.47 26.22 24.16C25.93 24.84 25.52 25.47 24.99 25.99C23.93 27.05 22.49 27.65 21 27.65C19.5 27.65 18.06 27.05 17 25.99C15.94 24.93 15.34 23.49 15.34 22C15.34 20.5 15.94 19.06 17 18ZM27.9 17.18C28.03 17.06 28.14 16.91 28.21 16.75C28.28 16.59 28.32 16.41 28.32 16.23C28.33 16.05 28.29 15.87 28.22 15.71C28.16 15.54 28.06 15.39 27.93 15.27C27.8 15.14 27.65 15.04 27.49 14.97C27.32 14.9 27.14 14.87 26.97 14.87C26.79 14.88 26.61 14.91 26.45 14.99C26.28 15.06 26.14 15.16 26.01 15.29C25.77 15.55 25.64 15.88 25.65 16.23C25.65 16.58 25.79 16.91 26.04 17.16C26.29 17.4 26.62 17.54 26.97 17.55C27.31 17.55 27.65 17.42 27.9 17.18Z" fill="#3A3A3A" fill-opacity="1.000000" fill-rule="evenodd"/>
</svg>
