<svg width="96.000000" height="26.000000" viewBox="0 0 96 26" fill="none" xmlns="http://www.w3.org/2000/svg" xmlns:xlink="http://www.w3.org/1999/xlink">
	<desc>
			Created with Pixso.
	</desc>
	<defs>
		<clipPath id="clip218_12">
			<rect id="logoipsum-282 1" rx="-0.500000" width="28.000000" height="15.000000" transform="translate(0.500000 4.500000)" fill="white" fill-opacity="0"/>
		</clipPath>
	</defs>
	<path id="DNX" d="M55.45 10.2Q53.46 9.15 50.79 9.15L44.48 9.15L44.48 26L50.79 26Q53.44 26 55.44 24.94Q56.6 24.33 57.45 23.43Q58.07 22.78 58.53 21.96Q58.64 21.78 58.73 21.6Q59.63 19.81 59.63 17.57Q59.63 15.19 58.64 13.35Q58.59 13.26 58.53 13.17Q58.08 12.36 57.46 11.71Q56.61 10.81 55.45 10.2ZM72.9 26L77 26L77 9.15L72.9 9.15L72.9 19.58L66.03 9.15L61.93 9.15L61.93 26L66.03 26L66.03 15.6L72.9 26ZM86.87 20.83L90.3 26L95.07 26L89.51 17.65L94.86 9.15L90.2 9.15L87.23 14.24L83.84 9.15L79.07 9.15L84.58 17.43L79.19 26L83.84 26L86.87 20.83ZM53.87 21.43Q52.61 22.44 50.53 22.44L48.58 22.44L48.58 12.65L50.53 12.65Q52.57 12.65 53.81 13.65Q53.99 13.79 54.15 13.95Q54.32 14.12 54.47 14.3Q55.45 15.54 55.45 17.57Q55.45 19.62 54.45 20.85Q54.31 21.02 54.15 21.17Q54.02 21.31 53.87 21.43Z" fill="#FFFFFF" fill-opacity="1.000000" fill-rule="evenodd"/>
	<rect id="logoipsum-282 1" rx="-0.500000" width="28.000000" height="15.000000" transform="translate(0.500000 4.500000)" fill="#FFFFFF" fill-opacity="0"/>
	<g clip-path="url(#clip218_12)">
		<path id="Vector" d="M12.74 4.15L28.47 14.36L28.47 19.84L21.13 19.84L21.13 16.33L9.71 8.91L7.34 8.91L7.34 19.84L0 19.84L0 4.15L12.74 4.15ZM21.13 9.59L21.13 4.15L28.47 4.15L28.47 9.59L21.13 9.59Z" fill="#FFFFFF" fill-opacity="1.000000" fill-rule="nonzero"/>
	</g>
</svg>
